<mxfile host="65bd71144e">
    <diagram id="k9PKdRFFc9656qdMAsGO" name="Pagina-1">
        <mxGraphModel dx="722" dy="1861" grid="1" gridSize="10" guides="1" tooltips="1" connect="1" arrows="1" fold="1" page="1" pageScale="1" pageWidth="827" pageHeight="1169" math="0" shadow="0">
            <root>
                <mxCell id="0"/>
                <mxCell id="1" parent="0"/>
                <mxCell id="2" value="char nome[50];&lt;br&gt;int eta;&lt;br&gt;float altezza;" style="whiteSpace=wrap;html=1;aspect=fixed;align=left;" parent="1" vertex="1">
                    <mxGeometry x="450" y="130" width="120" height="120" as="geometry"/>
                </mxCell>
                <mxCell id="3" value="FIle: Strutture0.c" style="text;html=1;align=center;verticalAlign=middle;resizable=0;points=[];autosize=1;strokeColor=none;fillColor=none;fontSize=19;fontStyle=1" parent="1" vertex="1">
                    <mxGeometry x="65" y="50" width="170" height="40" as="geometry"/>
                </mxCell>
                <mxCell id="5" style="edgeStyle=none;html=1;fontSize=19;" parent="1" source="4" edge="1">
                    <mxGeometry relative="1" as="geometry">
                        <mxPoint x="380" y="200" as="targetPoint"/>
                    </mxGeometry>
                </mxCell>
                <mxCell id="4" value="Struct Persona persona1;&amp;nbsp;" style="text;html=1;align=center;verticalAlign=middle;resizable=0;points=[];autosize=1;strokeColor=none;fillColor=none;fontSize=19;" parent="1" vertex="1">
                    <mxGeometry x="60" y="180" width="240" height="40" as="geometry"/>
                </mxCell>
                <mxCell id="6" value="persona1" style="text;html=1;align=center;verticalAlign=middle;resizable=0;points=[];autosize=1;strokeColor=none;fillColor=none;fontSize=19;" parent="1" vertex="1">
                    <mxGeometry x="450" y="90" width="100" height="40" as="geometry"/>
                </mxCell>
                <mxCell id="7" value="char nome[50];&lt;br&gt;int eta;&lt;br&gt;float altezza;" style="whiteSpace=wrap;html=1;aspect=fixed;align=left;" parent="1" vertex="1">
                    <mxGeometry x="450" y="310" width="120" height="120" as="geometry"/>
                </mxCell>
                <mxCell id="8" style="edgeStyle=none;html=1;fontSize=19;" parent="1" edge="1">
                    <mxGeometry relative="1" as="geometry">
                        <mxPoint x="380" y="370" as="targetPoint"/>
                        <mxPoint x="300" y="370" as="sourcePoint"/>
                    </mxGeometry>
                </mxCell>
                <mxCell id="9" value="Struct Persona persona2;&amp;nbsp;" style="text;html=1;align=center;verticalAlign=middle;resizable=0;points=[];autosize=1;strokeColor=none;fillColor=none;fontSize=19;" parent="1" vertex="1">
                    <mxGeometry x="60" y="350" width="240" height="40" as="geometry"/>
                </mxCell>
                <mxCell id="10" value="persona2" style="text;html=1;align=center;verticalAlign=middle;resizable=0;points=[];autosize=1;strokeColor=none;fillColor=none;fontSize=19;" parent="1" vertex="1">
                    <mxGeometry x="450" y="270" width="100" height="40" as="geometry"/>
                </mxCell>
                <mxCell id="11" value="Struttura di tipo Persona chiamata persona1" style="text;html=1;align=center;verticalAlign=middle;resizable=0;points=[];autosize=1;strokeColor=none;fillColor=none;fontSize=16;" parent="1" vertex="1">
                    <mxGeometry x="20" y="215" width="340" height="30" as="geometry"/>
                </mxCell>
                <mxCell id="12" value="Struttura di tipo Persona chiamata persona2" style="text;html=1;align=center;verticalAlign=middle;resizable=0;points=[];autosize=1;strokeColor=none;fillColor=none;fontSize=16;" parent="1" vertex="1">
                    <mxGeometry x="20" y="390" width="340" height="30" as="geometry"/>
                </mxCell>
                <mxCell id="13" value="FIle: Strutture1.c" style="text;html=1;align=center;verticalAlign=middle;resizable=0;points=[];autosize=1;strokeColor=none;fillColor=none;fontSize=19;fontStyle=1" parent="1" vertex="1">
                    <mxGeometry x="60" y="520" width="170" height="40" as="geometry"/>
                </mxCell>
                <mxCell id="14" value="char cognome[50];&lt;br&gt;int eta;" style="whiteSpace=wrap;html=1;aspect=fixed;align=left;" parent="1" vertex="1">
                    <mxGeometry x="360" y="560" width="120" height="120" as="geometry"/>
                </mxCell>
                <mxCell id="15" value="s1" style="text;html=1;align=center;verticalAlign=middle;resizable=0;points=[];autosize=1;strokeColor=none;fillColor=none;fontSize=19;" parent="1" vertex="1">
                    <mxGeometry x="390" y="520" width="40" height="40" as="geometry"/>
                </mxCell>
                <mxCell id="17" value="" style="edgeStyle=none;html=1;fontSize=16;" parent="1" source="16" edge="1">
                    <mxGeometry relative="1" as="geometry">
                        <mxPoint x="340" y="620" as="targetPoint"/>
                    </mxGeometry>
                </mxCell>
                <mxCell id="16" value="Struct Studente s1;&amp;nbsp;" style="text;html=1;align=center;verticalAlign=middle;resizable=0;points=[];autosize=1;strokeColor=none;fillColor=none;fontSize=19;" parent="1" vertex="1">
                    <mxGeometry x="85" y="600" width="190" height="40" as="geometry"/>
                </mxCell>
                <mxCell id="20" value="" style="edgeStyle=none;html=1;fontSize=16;" parent="1" source="18" edge="1">
                    <mxGeometry relative="1" as="geometry">
                        <mxPoint x="340" y="760" as="targetPoint"/>
                    </mxGeometry>
                </mxCell>
                <mxCell id="18" value="Struct Studente *sp;&amp;nbsp;" style="text;html=1;align=center;verticalAlign=middle;resizable=0;points=[];autosize=1;strokeColor=none;fillColor=none;fontSize=19;" parent="1" vertex="1">
                    <mxGeometry x="80" y="740" width="200" height="40" as="geometry"/>
                </mxCell>
                <mxCell id="19" value="&quot;spazio per indirizzo di memoria&quot;" style="rounded=0;whiteSpace=wrap;html=1;fontSize=12;fontStyle=2" parent="1" vertex="1">
                    <mxGeometry x="360" y="740" width="120" height="40" as="geometry"/>
                </mxCell>
                <mxCell id="22" value="sp" style="text;html=1;align=center;verticalAlign=middle;resizable=0;points=[];autosize=1;strokeColor=none;fillColor=none;fontSize=19;" parent="1" vertex="1">
                    <mxGeometry x="360" y="700" width="40" height="40" as="geometry"/>
                </mxCell>
                <mxCell id="23" value="sp = &amp;amp;s1;" style="text;html=1;align=center;verticalAlign=middle;resizable=0;points=[];autosize=1;strokeColor=none;fillColor=none;fontSize=19;" parent="1" vertex="1">
                    <mxGeometry x="135" y="860" width="100" height="40" as="geometry"/>
                </mxCell>
                <mxCell id="25" value="char cognome[50];&lt;br&gt;int eta;" style="whiteSpace=wrap;html=1;aspect=fixed;align=left;" parent="1" vertex="1">
                    <mxGeometry x="560" y="840" width="120" height="120" as="geometry"/>
                </mxCell>
                <mxCell id="26" value="s1" style="text;html=1;align=center;verticalAlign=middle;resizable=0;points=[];autosize=1;strokeColor=none;fillColor=none;fontSize=19;" parent="1" vertex="1">
                    <mxGeometry x="640" y="800" width="40" height="40" as="geometry"/>
                </mxCell>
                <mxCell id="31" value="" style="edgeStyle=none;html=1;fontSize=12;entryX=0;entryY=0;entryDx=0;entryDy=0;" parent="1" source="27" target="25" edge="1">
                    <mxGeometry relative="1" as="geometry"/>
                </mxCell>
                <mxCell id="27" value="0ex5A1" style="rounded=0;whiteSpace=wrap;html=1;fontSize=12;fontStyle=2" parent="1" vertex="1">
                    <mxGeometry x="360" y="870" width="120" height="40" as="geometry"/>
                </mxCell>
                <mxCell id="28" value="sp" style="text;html=1;align=center;verticalAlign=middle;resizable=0;points=[];autosize=1;strokeColor=none;fillColor=none;fontSize=19;" parent="1" vertex="1">
                    <mxGeometry x="360" y="830" width="40" height="40" as="geometry"/>
                </mxCell>
                <mxCell id="32" value="&lt;span style=&quot;font-style: italic;&quot;&gt;0ex5A1&lt;/span&gt;" style="text;html=1;align=center;verticalAlign=middle;resizable=0;points=[];autosize=1;strokeColor=none;fillColor=none;fontSize=12;" parent="1" vertex="1">
                    <mxGeometry x="540" y="805" width="60" height="30" as="geometry"/>
                </mxCell>
                <mxCell id="33" value="&lt;div style=&quot;color: rgb(59, 59, 59); background-color: rgb(255, 255, 255); font-family: Menlo, Monaco, &amp;quot;Courier New&amp;quot;, monospace; font-size: 14px; line-height: 21px;&quot;&gt;&lt;span style=&quot;color: #795e26;&quot;&gt;scanf&lt;/span&gt;(&lt;span style=&quot;color: #a31515;&quot;&gt;&quot;&lt;/span&gt;&lt;span style=&quot;color: #001080;&quot;&gt;%s&lt;/span&gt;&lt;span style=&quot;color: #a31515;&quot;&gt;&quot;&lt;/span&gt;, (&lt;span style=&quot;color: #001080;&quot;&gt;sp&lt;/span&gt;-&amp;gt;&lt;span style=&quot;color: #001080;&quot;&gt;cognome&lt;/span&gt;));&lt;/div&gt;" style="text;html=1;align=center;verticalAlign=middle;resizable=0;points=[];autosize=1;strokeColor=none;fillColor=none;fontSize=19;" parent="1" vertex="1">
                    <mxGeometry x="65" y="1060" width="250" height="30" as="geometry"/>
                </mxCell>
                <mxCell id="34" value="cognome = &quot;Rossi&quot;;&lt;br&gt;int eta;" style="whiteSpace=wrap;html=1;aspect=fixed;align=left;" parent="1" vertex="1">
                    <mxGeometry x="560" y="1025" width="120" height="120" as="geometry"/>
                </mxCell>
                <mxCell id="35" value="s1" style="text;html=1;align=center;verticalAlign=middle;resizable=0;points=[];autosize=1;strokeColor=none;fillColor=none;fontSize=19;" parent="1" vertex="1">
                    <mxGeometry x="640" y="985" width="40" height="40" as="geometry"/>
                </mxCell>
                <mxCell id="39" style="edgeStyle=none;html=1;entryX=0;entryY=0;entryDx=0;entryDy=0;fontSize=12;" parent="1" source="36" target="34" edge="1">
                    <mxGeometry relative="1" as="geometry"/>
                </mxCell>
                <mxCell id="36" value="0ex5A1" style="rounded=0;whiteSpace=wrap;html=1;fontSize=12;fontStyle=2" parent="1" vertex="1">
                    <mxGeometry x="360" y="1055" width="120" height="40" as="geometry"/>
                </mxCell>
                <mxCell id="37" value="sp" style="text;html=1;align=center;verticalAlign=middle;resizable=0;points=[];autosize=1;strokeColor=none;fillColor=none;fontSize=19;" parent="1" vertex="1">
                    <mxGeometry x="360" y="1015" width="40" height="40" as="geometry"/>
                </mxCell>
                <mxCell id="38" value="&lt;span style=&quot;font-style: italic;&quot;&gt;0ex5A1&lt;/span&gt;" style="text;html=1;align=center;verticalAlign=middle;resizable=0;points=[];autosize=1;strokeColor=none;fillColor=none;fontSize=12;" parent="1" vertex="1">
                    <mxGeometry x="540" y="990" width="60" height="30" as="geometry"/>
                </mxCell>
                <mxCell id="41" value="&lt;i&gt;Ipotizzando che l'utente inserisca il congome &quot;Rossi&quot;&lt;/i&gt;" style="text;html=1;align=center;verticalAlign=middle;resizable=0;points=[];autosize=1;strokeColor=none;fillColor=none;fontSize=12;" parent="1" vertex="1">
                    <mxGeometry x="40" y="1095" width="300" height="30" as="geometry"/>
                </mxCell>
                <mxCell id="42" value="STRUTTURE" style="text;html=1;align=center;verticalAlign=middle;resizable=0;points=[];autosize=1;strokeColor=none;fillColor=none;fontSize=19;fontStyle=1" vertex="1" parent="1">
                    <mxGeometry x="95" y="-1080" width="140" height="40" as="geometry"/>
                </mxCell>
            </root>
        </mxGraphModel>
    </diagram>
</mxfile>